<svg width="137" height="137" viewBox="0 0 137 137" fill="none" xmlns="http://www.w3.org/2000/svg">
<path fill-rule="evenodd" clip-rule="evenodd" d="M62.8715 27.4003C63.8534 26.116 65.6344 24.2607 68.4999 24.2607C71.3655 24.2607 73.1465 26.116 74.1284 27.4003C75.0702 28.6219 76.0121 30.3173 76.9825 32.0583L77.6732 33.3027L77.9986 33.8736L78.5637 34.0049L79.9223 34.3131C81.7889 34.7355 83.6499 35.1522 85.0769 35.7174C86.6524 36.3396 88.7874 37.544 89.6151 40.1984C90.4256 42.7957 89.4039 44.9991 88.5134 46.4205C87.6856 47.7334 86.4298 49.1947 85.1454 50.696L84.2321 51.7692L83.764 52.3229C83.7754 52.5284 83.804 52.7682 83.8325 53.0935L83.9695 54.5206C84.1636 56.5242 84.352 58.4651 84.2835 60.0177C84.215 61.6503 83.8268 64.1163 81.612 65.7889C79.3286 67.5242 76.817 67.1474 75.2186 66.6851C73.7459 66.2684 72.0049 65.4635 70.2524 64.6586L68.9851 64.0707L68.4999 63.848L68.0147 64.0764L66.7418 64.6586C64.995 65.4635 63.254 66.2684 61.7812 66.6851C60.1829 67.1417 57.6712 67.5242 55.3879 65.7889C53.1788 64.1163 52.7849 61.6503 52.7164 60.0234C52.6479 58.4651 52.8306 56.5242 53.0304 54.5149L53.1674 53.0878L53.2416 52.3229C53.0848 52.1374 52.9269 51.9528 52.7678 51.7692L51.8544 50.696C50.5701 49.1947 49.3142 47.7277 48.4865 46.4148C47.596 44.9991 46.5742 42.7957 47.3848 40.1927C48.2068 37.5497 50.3474 36.3396 51.9229 35.7174C53.35 35.1522 55.2109 34.7355 57.0776 34.3131L58.4362 34.0049L59.007 33.8736L59.3266 33.3027L60.0174 32.0583C60.9878 30.3173 61.9296 28.6219 62.8715 27.4003ZM68.4999 34.4444C68.1689 35.0209 67.7978 35.6831 67.364 36.4652L66.8046 37.4698L66.6733 37.6982C66.228 38.5202 65.4859 39.8787 64.2472 40.8206C62.9857 41.7796 61.4616 42.1107 60.5768 42.3048L60.3256 42.3562L59.241 42.6016C58.2364 42.8299 57.4201 43.0126 56.7294 43.1896C57.1803 43.7433 57.7683 44.4397 58.5332 45.3359L59.2753 46.2036L59.4465 46.3977C60.063 47.1112 61.0563 48.2529 61.5186 49.737C61.9753 51.1984 61.8155 52.7054 61.7184 53.653L61.6899 53.9212L61.5757 55.08C61.4878 55.9546 61.4079 56.8299 61.336 57.7059C61.9354 57.4433 62.6089 57.135 63.4138 56.764L64.4356 56.2959L64.6639 56.1817C65.4859 55.7993 66.9073 55.1257 68.4999 55.1257C70.0926 55.1257 71.5139 55.7993 72.3359 56.1875L72.5643 56.2959L73.5861 56.764C74.3852 57.135 75.0702 57.449 75.6639 57.7059C75.592 56.8299 75.5121 55.9546 75.4241 55.08L75.31 53.9212L75.2814 53.653C75.1844 52.6997 75.0246 51.1984 75.4812 49.737C75.9379 48.2529 76.9369 47.1112 77.5534 46.3977L77.7246 46.2036L78.4667 45.3359C79.2316 44.4397 79.8196 43.7433 80.2705 43.1896C79.5798 43.0183 78.7635 42.8299 77.7589 42.6016L76.6743 42.3562L76.4231 42.2991C75.5383 42.1107 74.0142 41.7796 72.7526 40.8149C71.5139 39.8787 70.7719 38.5202 70.3266 37.7039L70.1953 37.4698L69.6359 36.4652C69.2021 35.6831 68.8367 35.0209 68.4999 34.4444Z" fill="#C3E600"/>
<path fill-rule="evenodd" clip-rule="evenodd" d="M42.801 9.17353C51.2958 7.78101 59.8919 7.09936 68.5 7.13565C78.9348 7.13565 87.5601 8.0547 94.1989 9.17353L94.9695 9.30482C100.735 10.2695 105.53 11.0744 109.275 15.6867C111.678 18.6494 112.454 21.8517 112.631 25.4194L115.44 26.3556C118.083 27.2347 120.406 28.011 122.238 28.8673C124.225 29.792 126.046 30.9794 127.438 32.9145C128.831 34.8439 129.385 36.9503 129.636 39.1252C129.865 41.1402 129.865 43.5777 129.865 46.3747V47.1967C129.865 49.4915 129.865 51.5179 129.693 53.2133C129.511 55.0457 129.105 56.8324 128.095 58.5563C127.073 60.2859 125.709 61.5075 124.196 62.5579C122.798 63.5283 121.028 64.5158 119.019 65.6289L103.949 74.0031C100.866 80.0596 96.642 85.4597 90.8195 89.3585C85.8247 92.7093 79.8481 94.8328 72.7812 95.4379V107.031H80.9441C83.2536 107.032 85.4917 107.832 87.2777 109.296C89.0636 110.761 90.287 112.798 90.7396 115.063L91.9897 121.302H102.75C103.885 121.302 104.974 121.753 105.777 122.556C106.58 123.359 107.031 124.448 107.031 125.584C107.031 126.719 106.58 127.808 105.777 128.611C104.974 129.414 103.885 129.865 102.75 129.865H34.25C33.1145 129.865 32.0255 129.414 31.2227 128.611C30.4198 127.808 29.9687 126.719 29.9687 125.584C29.9687 124.448 30.4198 123.359 31.2227 122.556C32.0255 121.753 33.1145 121.302 34.25 121.302H45.0102L46.2603 115.063C46.713 112.798 47.9363 110.761 49.7222 109.296C51.5082 107.832 53.7463 107.032 56.0558 107.031H64.2187V95.4379C57.1518 94.8328 51.1752 92.7093 46.1804 89.3642C40.3636 85.4597 36.1337 80.0596 33.0512 74.0031L17.9812 65.6289C16.2079 64.6875 14.4802 63.6627 12.8038 62.5579C11.225 61.5321 9.89498 60.167 8.91067 58.562C7.98351 56.9212 7.43543 55.0936 7.30663 53.2133C7.13538 51.5179 7.13538 49.4915 7.13538 47.1967V46.369C7.13538 43.5834 7.13538 41.1402 7.36371 39.1252C7.61488 36.9503 8.16288 34.8439 9.56142 32.9145C10.9543 30.9794 12.7752 29.792 14.756 28.8616C16.5998 28.0053 18.9174 27.2347 21.5603 26.3556L24.3688 25.4194C24.5458 21.846 25.3221 18.6494 27.7253 15.6867C31.4757 11.0687 36.265 10.2638 42.0361 9.30482L42.801 9.17353ZM53.7439 121.302H83.256L82.3427 116.741C82.278 116.418 82.1034 116.127 81.8484 115.918C81.5935 115.709 81.2739 115.594 80.9441 115.594H56.0558C55.726 115.594 55.4065 115.709 55.1515 115.918C54.8965 116.127 54.7219 116.418 54.6572 116.741L53.7439 121.302ZM24.5572 34.3815L24.4773 34.4101C21.566 35.3805 19.7165 36.0084 18.3694 36.6306C17.1307 37.2014 16.7311 37.6067 16.5085 37.9207C16.2801 38.2289 16.029 38.737 15.8748 40.0956C15.7036 41.5683 15.6979 43.5206 15.6979 46.5917V47.0084C15.6979 49.5486 15.6979 51.1412 15.8235 52.3628C15.9376 53.4816 16.1203 53.9326 16.2915 54.218C16.4571 54.5034 16.7596 54.8802 17.6844 55.5252C18.689 56.2216 20.0819 56.9979 22.3081 58.2367L28.3875 61.616C25.9443 52.6539 24.9625 43.0639 24.5629 34.3872L24.5572 34.3815ZM108.612 61.6103C111.056 52.6482 112.037 43.0582 112.443 34.3815L112.523 34.4101C115.434 35.3805 117.283 36.0084 118.631 36.6306C119.869 37.2014 120.269 37.6067 120.491 37.9207C120.72 38.2289 120.971 38.737 121.125 40.0956C121.296 41.5683 121.302 43.5206 121.302 46.5917V47.0084C121.302 49.5486 121.302 51.1412 121.176 52.3628C121.062 53.4816 120.88 53.9326 120.708 54.218C120.543 54.5034 120.24 54.8802 119.316 55.5252C118.305 56.2216 116.918 56.9979 114.692 58.2367L108.612 61.6103ZM68.5 15.6982C58.5675 15.6982 50.4217 16.5715 44.2281 17.6162C37.3382 18.7807 35.894 19.2145 34.3755 21.0868C32.88 22.9249 32.7372 24.6717 33.0398 32.4064C33.5535 45.2959 35.2546 59.2128 40.5177 69.796C43.1207 75.0135 46.5229 79.2833 50.9525 82.2516C55.348 85.2028 61.0277 87.0523 68.5 87.0523C75.9779 87.0523 81.652 85.2028 86.0531 82.2516C90.4827 79.2833 93.8792 75.0135 96.4765 69.7903C101.745 59.2128 103.446 45.3016 103.954 32.4007C104.268 24.6717 104.126 22.9249 102.63 21.0868C101.112 19.2145 99.6618 18.7807 92.7718 17.6162C84.7485 16.3035 76.6298 15.6619 68.5 15.6982Z" fill="#C3E600"/>
</svg>
