<svg width="137" height="137" viewBox="0 0 137 137" fill="none" xmlns="http://www.w3.org/2000/svg">
<path d="M118.524 71.4033C119.005 73.0088 119.246 74.6678 119.246 76.3535C119.246 80.1397 118.002 83.7788 115.754 86.7489C116.236 88.3544 116.477 90.0134 116.477 91.6991C116.477 95.4853 115.233 99.1244 112.985 102.095C113.466 103.7 113.707 105.359 113.707 107.045C113.707 113.948 109.6 120.169 103.232 122.885C102.112 123.368 100.905 123.614 99.6862 123.608L19.2656 123.608C16.8976 123.608 14.9844 121.695 14.9844 119.327L14.9844 70.6273C14.9844 68.2593 16.8976 66.3461 19.2656 66.3461L36.5646 66.3461L48.0437 24.7644C49.8899 18.0616 56.0442 13.379 63.0013 13.379C66.9748 13.379 70.6808 14.9577 73.4234 17.8475C76.1661 20.724 77.5709 24.4969 77.3702 28.4704L76.5675 44.9131L108.663 44.9131C110.282 44.9131 111.861 45.3412 113.252 46.1573C118.658 49.3014 122.016 55.0008 122.016 61.0079C122.016 64.7941 120.771 68.4332 118.524 71.4033ZM24.6172 75.9923L24.6172 113.988L35.4541 113.988L35.4541 75.9923L24.6172 75.9923ZM108.53 54.5325L66.4664 54.5325L67.7508 27.9888C67.8311 26.3967 67.122 24.8982 65.7975 23.9082C64.9814 23.3061 63.9779 22.9984 62.9745 23.0118C61.6926 23.0242 60.4493 23.4522 59.4312 24.2314C58.4132 25.0106 57.6754 26.099 57.3286 27.3332L44.0166 75.5641L44.0166 113.988L99.5926 113.988C100.93 113.389 102.066 112.416 102.863 111.187C103.661 109.957 104.086 108.524 104.088 107.058C104.088 105.76 103.78 104.529 103.165 103.406L101.305 100.007L104.235 97.4654C105.06 96.7512 105.721 95.8676 106.173 94.8748C106.626 93.8821 106.859 92.8035 106.857 91.7125C106.857 90.4147 106.55 89.1839 105.934 88.0601L104.075 84.6618L107.004 82.1198C107.829 81.4055 108.49 80.522 108.943 79.5292C109.395 78.5365 109.629 77.4579 109.627 76.3669C109.627 75.0691 109.319 73.8383 108.704 72.7144L106.831 69.3028L109.761 66.7608C110.585 66.0466 111.246 65.163 111.699 64.1702C112.151 63.1775 112.385 62.0989 112.383 61.0079C112.383 58.4525 110.911 55.9908 108.53 54.5325Z" fill="#C3E600"/>
</svg>
