<svg width="1025" height="446" viewBox="0 0 1025 446" fill="none" xmlns="http://www.w3.org/2000/svg">
<rect width="1025" height="446" fill="white"/>
<mask id="mask0_1425_2" style="mask-type:alpha" maskUnits="userSpaceOnUse" x="82" y="91" width="101" height="87">
<path d="M157.301 91L182.301 134.301L157.301 177.603L107.301 177.603L82.3013 134.301L107.301 91L157.301 91Z" fill="#D9D9D9"/>
</mask>
<g mask="url(#mask0_1425_2)">
<path d="M159.625 91.7625C151.694 86.8687 142.581 84 132.625 84V91.7625H159.625Z" fill="#ED4C5C"/>
<path d="M132.625 99.5242H169.075C166.206 96.6555 163 93.9555 159.625 91.7617H132.625V99.5242Z" fill="white"/>
<path d="M132.625 107.288H175.319C173.462 104.419 171.438 101.888 169.244 99.5254H132.625V107.288Z" fill="#ED4C5C"/>
<path d="M132.625 115.05H179.369C178.188 112.35 176.837 109.65 175.319 107.287H132.625V115.05Z" fill="white"/>
<path d="M132.625 122.813H181.9C181.225 120.113 180.381 117.582 179.369 115.051H132.625V122.813Z" fill="#ED4C5C"/>
<path d="M132.625 130.743H183.081C182.913 128.043 182.406 125.512 181.9 122.98H132.625V130.743Z" fill="white"/>
<path d="M183.081 130.744H132.625V134.625H82C82 135.975 82 137.157 82.1687 138.507H183.081C183.25 137.157 183.25 135.975 183.25 134.625C183.25 133.275 183.25 131.925 183.081 130.744Z" fill="#ED4C5C"/>
<path d="M83.3492 146.268H181.899C182.574 143.737 182.912 141.206 183.08 138.506H82.168C82.3367 141.037 82.6742 143.737 83.3492 146.268Z" fill="white"/>
<path d="M85.8809 154.032H179.368C180.381 151.501 181.225 148.97 181.9 146.27H83.3496C84.0246 148.97 84.8684 151.501 85.8809 154.032Z" fill="#ED4C5C"/>
<path d="M89.9309 161.794H175.318C176.837 159.262 178.187 156.731 179.368 154.031H85.8809C87.0621 156.731 88.4121 159.262 89.9309 161.794Z" fill="white"/>
<path d="M96.0066 169.555H169.244C171.438 167.193 173.632 164.493 175.319 161.793H89.9316C91.6191 164.662 93.8129 167.193 96.0066 169.555Z" fill="#ED4C5C"/>
<path d="M105.456 177.319H159.793C163.337 175.125 166.375 172.425 169.243 169.557H96.0059C98.8746 172.594 102.081 175.125 105.456 177.319Z" fill="white"/>
<path d="M132.626 185.25C142.582 185.25 151.863 182.381 159.795 177.318H105.457C113.388 182.381 122.67 185.25 132.626 185.25Z" fill="#ED4C5C"/>
<path d="M105.625 91.7625C102.081 93.9562 98.875 96.6562 96.0063 99.525C93.6438 101.887 91.6187 104.588 89.9312 107.288C88.4125 109.819 86.8938 112.35 85.8813 115.05C84.8688 117.581 84.025 120.112 83.35 122.812C82.675 125.344 82.3375 127.875 82.1687 130.575C82 131.925 82 133.275 82 134.625H132.625V84C122.669 84 113.556 86.8687 105.625 91.7625Z" fill="#428BC1"/>
<path d="M120.813 85.6875L121.657 88.2188H124.188L122.163 89.9062L122.838 92.4375L120.813 90.9187L118.788 92.4375L119.463 89.9062L117.438 88.2188H119.97L120.813 85.6875ZM127.563 95.8125L128.407 98.3438H130.938L128.913 100.031L129.588 102.562L127.563 101.044L125.538 102.562L126.213 100.031L124.188 98.3438H126.72L127.563 95.8125ZM114.063 95.8125L114.907 98.3438H117.438L115.413 100.031L116.088 102.562L114.063 101.044L112.038 102.562L112.713 100.031L110.688 98.3438H113.22L114.063 95.8125ZM120.813 105.938L121.657 108.469H124.188L122.163 110.156L122.838 112.688L120.813 111.169L118.788 112.688L119.463 110.156L117.438 108.469H119.97L120.813 105.938ZM107.313 105.938L108.157 108.469H110.688L108.663 110.156L109.338 112.688L107.313 111.169L105.288 112.688L105.963 110.156L103.938 108.469H106.47L107.313 105.938ZM93.8133 105.938L94.657 108.469H97.1883L95.1633 110.156L95.8383 112.688L93.8133 111.169L91.7883 112.688L92.4633 110.156L90.4383 108.469H92.9695L93.8133 105.938ZM127.563 116.062L128.407 118.594H130.938L128.913 120.281L129.588 122.812L127.563 121.294L125.538 122.812L126.213 120.281L124.188 118.594H126.72L127.563 116.062ZM114.063 116.062L114.907 118.594H117.438L115.413 120.281L116.088 122.812L114.063 121.294L112.038 122.812L112.713 120.281L110.688 118.594H113.22L114.063 116.062ZM100.563 116.062L101.407 118.594H103.938L101.913 120.281L102.588 122.812L100.563 121.294L98.5383 122.812L99.2133 120.281L97.1883 118.594H99.7195L100.563 116.062ZM120.813 126.188L121.657 128.719H124.188L122.163 130.406L122.838 132.938L120.813 131.419L118.788 132.938L119.463 130.406L117.438 128.719H119.97L120.813 126.188ZM107.313 126.188L108.157 128.719H110.688L108.663 130.406L109.338 132.938L107.313 131.419L105.288 132.938L105.963 130.406L103.938 128.719H106.47L107.313 126.188ZM93.8133 126.188L94.657 128.719H97.1883L95.1633 130.406L95.8383 132.938L93.8133 131.419L91.7883 132.938L92.4633 130.406L90.4383 128.719H92.9695L93.8133 126.188ZM98.5383 102.562L100.563 101.044L102.588 102.562L101.745 100.031L103.77 98.3438H101.238L100.563 95.8125L99.7195 98.3438H97.357L99.382 99.8625L98.5383 102.562ZM85.0383 122.812L87.0633 121.294L89.0883 122.812L88.2445 120.281L90.2695 118.594H87.907L87.0633 116.062L86.2195 118.594H84.532C84.532 118.763 84.3633 118.931 84.3633 119.1L85.7133 120.112L85.0383 122.812Z" fill="white"/>
</g>
<path d="M226.667 156.005C220.096 156.005 215.061 154.341 211.563 151.013C208.107 147.685 206.379 142.714 206.379 136.101V110.181H218.155V136.229C218.155 139.514 218.88 141.989 220.331 143.653C221.781 145.317 223.893 146.149 226.667 146.149C229.397 146.149 231.488 145.317 232.939 143.653C234.389 141.989 235.115 139.514 235.115 136.229V110.181H246.699V136.101C246.699 142.714 244.992 147.685 241.579 151.013C238.208 154.341 233.237 156.005 226.667 156.005ZM271.342 156.005C267.8 156.005 264.408 155.578 261.166 154.725C257.923 153.829 255.256 152.655 253.166 151.205L256.43 142.053C258.392 143.375 260.696 144.421 263.342 145.189C265.987 145.957 268.654 146.341 271.342 146.341C274.158 146.341 276.12 145.978 277.23 145.253C278.382 144.485 278.958 143.546 278.958 142.437C278.958 141.455 278.552 140.666 277.742 140.069C276.974 139.471 275.587 138.959 273.582 138.533L266.094 136.933C257.987 135.183 253.934 130.938 253.934 124.197C253.934 121.253 254.723 118.671 256.302 116.453C257.923 114.234 260.163 112.527 263.022 111.333C265.88 110.095 269.208 109.477 273.006 109.477C276.12 109.477 279.064 109.925 281.838 110.821C284.654 111.674 286.936 112.847 288.686 114.341L285.422 122.917C283.8 121.722 281.923 120.805 279.79 120.165C277.656 119.482 275.352 119.141 272.878 119.141C270.488 119.141 268.654 119.567 267.374 120.421C266.094 121.231 265.454 122.298 265.454 123.621C265.454 124.559 265.838 125.327 266.606 125.925C267.374 126.522 268.739 127.034 270.702 127.461L278.126 129.061C286.36 130.81 290.478 134.949 290.478 141.477C290.478 144.421 289.688 146.981 288.11 149.157C286.531 151.333 284.312 153.018 281.454 154.213C278.595 155.407 275.224 156.005 271.342 156.005ZM296.261 155.301V110.181H314.949C322.757 110.181 328.816 112.143 333.125 116.069C337.434 119.994 339.589 125.541 339.589 132.709C339.589 139.877 337.434 145.445 333.125 149.413C328.816 153.338 322.757 155.301 314.949 155.301H296.261ZM308.037 145.765H314.181C318.661 145.765 321.968 144.698 324.101 142.565C326.277 140.389 327.365 137.103 327.365 132.709C327.365 128.314 326.277 125.05 324.101 122.917C321.925 120.783 318.618 119.717 314.181 119.717H308.037V145.765Z" fill="#232800"/>
<mask id="mask1_1425_2" style="mask-type:alpha" maskUnits="userSpaceOnUse" x="82" y="268" width="101" height="87">
<path d="M157.301 268L182.301 311.301L157.301 354.603L107.301 354.603L82.3013 311.301L107.301 268L157.301 268Z" fill="#D9D9D9"/>
</mask>
<g mask="url(#mask1_1425_2)">
<path d="M132.625 362.25C160.638 362.25 183.25 339.638 183.25 311.625H82C82 339.638 104.612 362.25 132.625 362.25Z" fill="#FFE62E"/>
<path d="M132.625 261C104.612 261 82 283.612 82 311.625H183.25C183.25 283.612 160.638 261 132.625 261Z" fill="#428BC1"/>
</g>
<path d="M226.667 333.005C220.096 333.005 215.061 331.341 211.563 328.013C208.107 324.685 206.379 319.714 206.379 313.101V287.181H218.155V313.229C218.155 316.514 218.88 318.989 220.331 320.653C221.781 322.317 223.893 323.149 226.667 323.149C229.397 323.149 231.488 322.317 232.939 320.653C234.389 318.989 235.115 316.514 235.115 313.229V287.181H246.699V313.101C246.699 319.714 244.992 324.685 241.579 328.013C238.208 331.341 233.237 333.005 226.667 333.005ZM248.821 332.301L269.941 287.181H279.221L300.341 332.301H288.565L284.661 323.149H264.501L260.597 332.301H248.821ZM274.485 299.469L268.341 314.125H280.757L274.613 299.469H274.485ZM303.074 332.301V287.181H314.85V304.589H333.474V287.181H345.186V332.301H333.474V314.253H314.85V332.301H303.074Z" fill="#232800"/>
<mask id="mask2_1425_2" style="mask-type:alpha" maskUnits="userSpaceOnUse" x="410" y="268" width="101" height="87">
<path d="M485.301 268L510.301 311.301L485.301 354.603L435.301 354.603L410.301 311.301L435.301 268L485.301 268Z" fill="#D9D9D9"/>
</mask>
<g mask="url(#mask2_1425_2)">
<path d="M460.625 362.25C488.584 362.25 511.25 339.584 511.25 311.625C511.25 283.666 488.584 261 460.625 261C432.666 261 410 283.666 410 311.625C410 339.584 432.666 362.25 460.625 362.25Z" fill="#00AFCA"/>
<path d="M502.307 313.48C501.126 312.805 499.776 313.649 499.776 314.83C499.27 323.099 484.757 325.293 477.838 325.293C470.92 325.461 456.07 322.93 455.563 314.83C455.563 313.649 454.213 312.974 453.032 313.48C449.488 315.336 448.307 318.88 449.151 322.424C450.67 328.836 458.601 333.393 465.351 335.418C464.845 336.599 464.676 337.78 464.507 338.961C464.338 340.311 466.363 340.818 467.376 339.974C471.257 337.105 477.332 335.924 482.395 335.924C484.588 335.924 484.588 332.886 482.395 332.886C477.838 332.886 472.945 333.73 468.895 335.586C470.413 332.043 473.957 328.499 477.838 328.33H478.007C486.107 328.499 499.101 325.63 502.476 318.036C502.982 319.386 502.982 320.905 502.476 322.255C500.788 327.655 494.882 329.849 489.313 331.368C487.288 331.874 488.132 334.911 490.157 334.236C497.245 332.38 502.813 329.511 505.682 323.099C507.032 319.724 505.682 315.674 502.307 313.48ZM466.701 332.549C461.132 331.03 456.913 328.33 453.538 323.943C452.188 322.086 451.682 319.555 452.863 317.699C455.395 323.605 463.663 326.643 471.088 327.655C469.401 329.005 467.882 330.693 466.701 332.549Z" fill="#FFE62E"/>
<path d="M477.502 316.181C484.678 316.181 490.495 310.363 490.495 303.187C490.495 296.011 484.678 290.193 477.502 290.193C470.325 290.193 464.508 296.011 464.508 303.187C464.508 310.363 470.325 316.181 477.502 316.181Z" fill="#FFE62E"/>
<path d="M477.501 288.505C478.345 288.505 478.513 287.999 478.513 287.493C478.513 286.649 477.501 283.105 477.501 283.105C477.501 283.105 476.488 286.818 476.488 287.493C476.488 287.999 476.657 288.505 477.501 288.505Z" fill="#FFE62E"/>
<path d="M483.069 289.518C483.744 289.856 484.25 289.518 484.419 289.012C484.757 288.337 485.094 284.456 485.094 284.456C485.094 284.456 482.732 287.493 482.394 288.168C482.394 288.675 482.394 289.35 483.069 289.518ZM491.169 308.756C490.832 309.431 491.169 309.937 491.675 310.106C492.35 310.443 496.232 310.781 496.232 310.781C496.232 310.781 493.194 308.418 492.519 308.081C492.013 308.081 491.338 308.081 491.169 308.756ZM471.932 316.856C471.257 316.518 470.75 316.856 470.582 317.362C470.244 318.037 469.907 321.918 469.907 321.918C469.907 321.918 472.269 318.881 472.607 318.206C472.607 317.7 472.607 317.025 471.932 316.856ZM463.832 297.618C464.169 296.943 463.832 296.437 463.325 296.268C462.65 295.931 458.769 295.593 458.769 295.593C458.769 295.593 461.807 297.956 462.482 298.293C462.988 298.293 463.663 298.293 463.832 297.618ZM487.963 292.725C488.469 293.231 489.144 293.062 489.482 292.725C489.988 292.218 491.844 288.843 491.844 288.843C491.844 288.843 488.469 290.7 487.963 291.206C487.457 291.712 487.457 292.218 487.963 292.725ZM487.963 313.65C487.457 314.156 487.625 314.662 487.963 315.168C488.469 315.675 491.844 317.531 491.844 317.531C491.844 317.531 489.988 314.156 489.482 313.65C488.975 313.143 488.469 313.143 487.963 313.65ZM467.038 313.65C466.532 313.143 465.857 313.312 465.519 313.65C465.013 314.156 463.157 317.531 463.157 317.531C463.157 317.531 466.532 315.675 467.038 315.168C467.544 314.662 467.544 314.156 467.038 313.65ZM467.038 292.725C467.544 292.218 467.375 291.543 467.038 291.206C466.532 290.7 463.157 288.843 463.157 288.843C463.157 288.843 465.013 292.218 465.519 292.725C466.025 293.231 466.532 293.231 467.038 292.725ZM491.169 297.618C491.507 298.293 492.013 298.462 492.519 298.125C493.194 297.787 496.232 295.425 496.232 295.425C496.232 295.425 492.35 295.931 491.675 296.1C491.169 296.437 490.832 296.775 491.169 297.618ZM483.069 316.856C482.394 317.193 482.225 317.7 482.563 318.206C482.9 318.881 485.263 321.918 485.263 321.918C485.263 321.918 484.757 318.037 484.588 317.362C484.25 316.856 483.913 316.518 483.069 316.856ZM463.832 308.756C463.494 308.081 462.988 307.912 462.482 308.25C461.807 308.587 458.769 310.95 458.769 310.95C458.769 310.95 462.65 310.443 463.325 310.275C463.832 309.937 464.169 309.6 463.832 308.756ZM471.932 289.518C472.607 289.181 472.775 288.675 472.438 288.168C472.1 287.493 469.738 284.456 469.738 284.456C469.738 284.456 470.244 288.168 470.413 289.012C470.75 289.518 471.088 289.856 471.932 289.518ZM480.369 288.675C481.044 288.843 481.55 288.337 481.55 287.831C481.719 287.156 481.382 283.275 481.382 283.275C481.382 283.275 479.694 286.65 479.525 287.493C479.357 288 479.694 288.506 480.369 288.675ZM492.013 306.056C491.844 306.731 492.35 307.237 492.857 307.237C493.532 307.406 497.413 307.068 497.413 307.068C497.413 307.068 494.038 305.381 493.194 305.212C492.688 305.043 492.182 305.381 492.013 306.056ZM474.632 317.7C473.957 317.531 473.45 318.037 473.45 318.543C473.282 319.218 473.619 323.1 473.619 323.1C473.619 323.1 475.307 319.725 475.475 318.881C475.644 318.375 475.307 317.868 474.632 317.7ZM462.988 300.318C463.157 299.475 462.65 299.137 462.144 299.137C461.469 298.968 457.588 299.306 457.588 299.306C457.588 299.306 460.963 300.993 461.807 301.162C462.313 301.331 462.819 300.993 462.988 300.318ZM485.769 290.868C486.444 291.206 486.95 291.037 487.288 290.531C487.794 289.856 488.807 286.312 488.807 286.312C488.807 286.312 485.938 288.843 485.432 289.35C485.094 289.856 485.094 290.531 485.769 290.868ZM489.819 311.456C489.482 312.131 489.65 312.637 490.157 312.975C490.832 313.481 494.375 314.493 494.375 314.493C494.375 314.493 491.844 311.625 491.338 311.118C490.832 310.781 490.157 310.781 489.819 311.456ZM469.232 315.506C468.557 315.168 468.05 315.337 467.713 315.843C467.375 316.35 466.194 320.062 466.194 320.062C466.194 320.062 469.063 317.531 469.569 317.025C469.907 316.518 469.907 315.843 469.232 315.506ZM465.182 294.918C465.519 294.243 465.35 293.737 464.844 293.4C464.338 293.062 460.625 291.881 460.625 291.881C460.625 291.881 463.157 294.75 463.663 295.256C464.169 295.593 464.844 295.593 465.182 294.918ZM489.819 294.918C490.325 295.593 490.832 295.593 491.338 295.256C492.013 294.75 494.375 291.881 494.375 291.881C494.375 291.881 490.663 293.062 490.157 293.4C489.65 293.906 489.313 294.412 489.819 294.918ZM485.769 315.506C485.094 316.012 485.094 316.518 485.432 317.025C485.938 317.7 488.807 320.062 488.807 320.062C488.807 320.062 487.625 316.35 487.288 315.843C486.782 315.337 486.275 315 485.769 315.506ZM465.182 311.456C464.675 310.781 464.169 310.781 463.663 311.118C462.988 311.625 460.625 314.493 460.625 314.493C460.625 314.493 464.338 313.312 464.844 312.975C465.35 312.468 465.688 311.962 465.182 311.456ZM469.232 290.868C469.907 290.362 469.907 289.856 469.569 289.35C469.063 288.675 466.194 286.312 466.194 286.312C466.194 286.312 467.375 290.025 467.713 290.531C468.219 291.037 468.725 291.375 469.232 290.868ZM492.013 300.318C492.182 300.993 492.688 301.331 493.194 301.162C493.869 300.993 497.413 299.306 497.413 299.306C497.413 299.306 493.532 298.968 492.857 299.137C492.182 299.137 491.844 299.475 492.013 300.318ZM480.369 317.7C479.694 317.868 479.357 318.375 479.525 318.881C479.694 319.556 481.382 323.1 481.382 323.1C481.382 323.1 481.719 319.218 481.55 318.543C481.55 317.868 481.213 317.531 480.369 317.7ZM462.988 306.056C462.819 305.381 462.313 305.043 461.807 305.212C461.132 305.381 457.588 307.068 457.588 307.068C457.588 307.068 461.469 307.406 462.144 307.237C462.819 307.237 463.157 306.9 462.988 306.056ZM474.632 288.675C475.307 288.506 475.644 288 475.475 287.493C475.307 286.818 473.619 283.275 473.619 283.275C473.619 283.275 473.282 287.156 473.45 287.831C473.45 288.506 473.788 288.843 474.632 288.675ZM434.469 344.7H432.613V350.943H428.9C430.757 352.462 432.613 353.643 434.638 354.993V344.7H434.469ZM432.613 272.306V278.55H434.469V268.256C432.444 269.437 430.588 270.787 428.732 272.306H432.613ZM428.394 272.475C427.888 272.812 427.382 273.318 426.875 273.825L431.938 284.793H427.719V278.55H425.863V284.793H421.644L426.538 274.162C425.188 275.343 423.838 276.693 422.657 278.212L418.775 286.481L425.357 300.656H421.138V294.412H419.282V310.95H421.138V304.031H425.525L422.994 311.625L425.525 319.05H421.138V312.131H419.282V328.668H421.138V322.425H425.357L418.775 336.6L422.657 344.868C423.838 346.218 425.188 347.568 426.538 348.918L421.644 338.287H425.863V344.531H427.719V338.287H431.938L426.875 349.256C427.382 349.762 427.888 350.1 428.394 350.606L434.807 336.6L428.225 322.425H432.444V328.668H434.3V312.131H432.444V319.05H428.057L430.588 311.625L428.057 304.2H432.444V311.118H434.3V294.581H432.444V300.825H428.225L434.807 286.65L428.394 272.475ZM432.107 335.081H427.888V328.837H426.032V335.081H421.644L426.875 323.943L432.107 335.081ZM426.875 317.025L425.525 313.143H428.225L426.875 317.025ZM428.225 310.106H425.525L426.875 306.225L428.225 310.106ZM426.875 299.475L421.644 288.337H425.863V294.581H427.719V288.337H431.938L426.875 299.475Z" fill="#FFE62E"/>
</g>
<path d="M534.699 332.301V287.181H546.475V306.509H546.603L564.139 287.181H578.091L557.995 308.621L578.795 332.301H564.779L546.603 311.949H546.475V332.301H534.699ZM579.295 332.301V323.661L600.479 296.845H579.295V287.181H614.111V295.821L592.927 322.637H615.071V332.301H579.295ZM631.26 332.301V296.781H616.924V287.181H657.372V296.781H643.036V332.301H631.26Z" fill="#232800"/>
<mask id="mask3_1425_2" style="mask-type:alpha" maskUnits="userSpaceOnUse" x="410" y="91" width="101" height="87">
<path d="M485.301 91L510.301 134.301L485.301 177.603L435.301 177.603L410.301 134.301L435.301 91L485.301 91Z" fill="#D9D9D9"/>
</mask>
<g mask="url(#mask3_1425_2)">
<path d="M460.625 185.25C488.584 185.25 511.25 162.584 511.25 134.625C511.25 106.666 488.584 84 460.625 84C432.666 84 410 106.666 410 134.625C410 162.584 432.666 185.25 460.625 185.25Z" fill="#2A5F9E"/>
<path d="M460.625 100.537L461.806 104.25H465.688L462.65 106.612L463.831 110.325L460.625 107.962L457.419 110.325L458.6 106.612L455.562 104.25H459.444L460.625 100.537ZM460.625 157.912L461.806 161.625H465.688L462.65 163.818L463.831 167.7L460.625 165.337L457.419 167.7L458.6 163.818L455.562 161.625H459.444L460.625 157.912ZM474.8 153.187L475.981 156.9H480.031L476.825 159.262L478.006 162.975L474.8 160.612L471.594 162.975L472.944 159.262L469.738 156.9H473.619L474.8 153.187ZM484.588 143.4L485.769 147.112H489.819L486.613 149.475L487.794 153.187L484.588 150.825L481.381 153.187L482.731 149.475L479.525 147.112H483.406L484.588 143.4ZM489.312 129.225L490.494 132.937H494.375L491.169 135.3L492.35 139.012L489.312 136.65L486.106 139.012L487.287 135.3L484.081 132.937H487.963L489.312 129.225ZM484.588 114.881L485.769 118.762H489.819L486.613 120.956L487.794 124.668L484.588 122.475L481.381 124.668L482.731 120.956L479.525 118.762H483.406L484.588 114.881ZM474.8 105.093L475.981 108.975H480.031L476.825 111.168L478.006 114.881L474.8 112.687L471.594 114.881L472.944 111.168L469.738 108.975H473.619L474.8 105.093ZM446.45 153.187L445.269 156.9H441.219L444.425 159.262L443.244 162.975L446.45 160.612L449.656 162.975L448.306 159.262L451.513 156.9H447.631L446.45 153.187ZM436.662 143.4L435.481 147.112H431.431L434.638 149.475L433.456 153.187L436.662 150.825L439.869 153.187L438.519 149.475L441.725 147.112H437.844L436.662 143.4ZM431.938 129.225L430.756 132.937H426.875L430.081 135.3L428.9 139.012L431.938 136.65L435.144 139.012L433.963 135.3L437.169 132.937H433.288L431.938 129.225ZM436.662 114.881L435.481 118.762H431.431L434.638 120.956L433.456 124.668L436.662 122.475L439.869 124.668L438.519 120.956L441.725 118.762H437.844L436.662 114.881ZM446.45 105.093L445.269 108.975H441.219L444.425 111.168L443.244 114.881L446.45 112.687L449.656 114.881L448.306 111.168L451.513 108.975H447.631L446.45 105.093Z" fill="#FFCE31"/>
</g>
<path d="M534.699 155.301V110.181H566.571V119.269H545.963V127.845H565.099V136.933H545.963V146.213H566.571V155.301H534.699ZM593.979 156.005C587.408 156.005 582.374 154.341 578.875 151.013C575.419 147.685 573.691 142.714 573.691 136.101V110.181H585.467V136.229C585.467 139.514 586.192 141.989 587.643 143.653C589.094 145.317 591.206 146.149 593.979 146.149C596.71 146.149 598.8 145.317 600.251 143.653C601.702 141.989 602.427 139.514 602.427 136.229V110.181H614.011V136.101C614.011 142.714 612.304 147.685 608.891 151.013C605.52 154.341 600.55 156.005 593.979 156.005ZM621.886 155.301V110.181H643.582C648.702 110.181 652.649 111.439 655.422 113.957C658.238 116.431 659.646 119.887 659.646 124.325C659.646 127.695 658.793 130.533 657.086 132.837C655.422 135.098 652.99 136.677 649.79 137.573C652.179 138.213 654.099 139.855 655.55 142.501L662.59 155.301H649.662L641.854 140.965C641.342 140.069 640.681 139.429 639.87 139.045C639.102 138.661 638.206 138.469 637.182 138.469H633.662V155.301H621.886ZM633.662 130.149H641.47C646.121 130.149 648.446 128.314 648.446 124.645C648.446 121.018 646.121 119.205 641.47 119.205H633.662V130.149Z" fill="#232800"/>
<path d="M791.301 91L816.301 134.301L791.301 177.603L741.301 177.603L716.301 134.301L741.301 91L791.301 91Z" fill="white"/>
<path d="M774.35 125.9V93.8225C771.745 93.2742 769.004 93 766.125 93C763.246 93 760.505 93.2742 757.9 93.8225V125.9H725.822C725.274 128.505 725 131.246 725 134.125C725 137.004 725.274 139.745 725.822 142.35H757.9V174.427C760.505 174.976 763.246 175.25 766.125 175.25C769.004 175.25 771.745 174.976 774.35 174.427V142.35H806.427C806.976 139.745 807.25 137.004 807.25 134.125C807.25 131.246 806.976 128.505 806.427 125.9H774.35Z" fill="#ED4C5C"/>
<path d="M746.934 117.675H741.45L742.821 109.45L741.45 101.225H746.934L745.563 109.45L746.934 117.675Z" fill="#ED4C5C"/>
<path d="M735.966 112.191V106.708L744.191 108.079L752.416 106.708V112.191L744.191 110.82L735.966 112.191ZM790.8 117.675H785.316L786.687 109.45L785.316 101.225H790.8L789.429 109.45L790.8 117.675Z" fill="#ED4C5C"/>
<path d="M779.834 112.192V106.709L788.059 108.08L796.284 106.709V112.192L788.059 110.821L779.834 112.192ZM746.934 167.026H741.45C741.45 167.026 742.821 160.857 742.821 158.801C742.821 156.744 741.45 150.576 741.45 150.576H746.934C746.934 150.576 745.563 156.744 745.563 158.801C745.563 160.857 746.934 167.026 746.934 167.026Z" fill="#ED4C5C"/>
<path d="M735.966 161.543V156.06L744.191 157.43L752.416 156.06V161.543L744.191 160.172L735.966 161.543ZM790.8 167.026H785.316L786.687 158.801L785.316 150.576H790.8L789.429 158.801L790.8 167.026Z" fill="#ED4C5C"/>
<path d="M779.833 161.542V156.059L788.058 157.429L796.283 156.059V161.542L788.058 160.171L779.833 161.542Z" fill="#ED4C5C"/>
<path d="M863.739 156.005C858.576 156.005 854.181 155.045 850.555 153.125C846.971 151.205 844.24 148.517 842.363 145.061C840.485 141.605 839.547 137.573 839.547 132.965C839.547 128.186 840.528 124.047 842.491 120.549C844.496 117.007 847.355 114.277 851.067 112.357C854.779 110.437 859.259 109.477 864.507 109.477C867.664 109.477 870.672 109.903 873.531 110.757C876.389 111.567 878.715 112.677 880.507 114.085L876.923 123.173C874.96 121.893 872.976 120.975 870.971 120.421C868.965 119.823 866.832 119.525 864.571 119.525C860.261 119.525 857.04 120.677 854.907 122.981C852.816 125.285 851.771 128.613 851.771 132.965C851.771 137.317 852.837 140.602 854.971 142.821C857.104 145.039 860.261 146.149 864.443 146.149C866.405 146.149 868.603 145.85 871.035 145.253V138.149H862.011V129.893H880.635V152.549C878.245 153.658 875.579 154.511 872.635 155.109C869.691 155.706 866.725 156.005 863.739 156.005ZM888.511 155.301V110.181H920.383V119.269H899.775V127.845H918.911V136.933H899.775V146.213H920.383V155.301H888.511ZM927.824 155.301V110.181H939.6V145.509H959.696V155.301H927.824Z" fill="#232800"/>
</svg>
