<svg width="32" height="32" viewBox="0 0 32 32" fill="none" xmlns="http://www.w3.org/2000/svg">
<path d="M16.0013 2.66675C23.3746 2.66675 29.3346 8.62675 29.3346 16.0001C29.3346 23.3734 23.3746 29.3334 16.0013 29.3334C8.62797 29.3334 2.66797 23.3734 2.66797 16.0001C2.66797 8.62675 8.62797 2.66675 16.0013 2.66675ZM22.668 9.33341H19.3346L18.0013 8.00008H14.0013L12.668 9.33341H9.33463V12.0001H22.668V9.33341ZM12.0013 24.0001H20.0013C20.3549 24.0001 20.6941 23.8596 20.9441 23.6096C21.1942 23.3595 21.3346 23.0204 21.3346 22.6667V13.3334H10.668V22.6667C10.668 23.0204 10.8084 23.3595 11.0585 23.6096C11.3085 23.8596 11.6477 24.0001 12.0013 24.0001Z" fill="#FB7756" fill-opacity="0.8"/>
</svg>
