<svg width="50" height="50" viewBox="0 0 50 50" fill="none" xmlns="http://www.w3.org/2000/svg">
<path d="M25 50C21.5417 50 18.2917 49.3433 15.25 48.03C12.2083 46.7167 9.5625 44.9358 7.3125 42.6875C5.0625 40.4375 3.28167 37.7917 1.97 34.75C0.658334 31.7083 0.00166667 28.4583 0 25C0 21.5417 0.656667 18.2917 1.97 15.25C3.28333 12.2083 5.06417 9.5625 7.3125 7.3125C9.5625 5.0625 12.2083 3.28167 15.25 1.97C18.2917 0.658334 21.5417 0.00166667 25 0C28.4583 0 31.7083 0.656667 34.75 1.97C37.7917 3.28333 40.4375 5.06417 42.6875 7.3125C44.9375 9.5625 46.7192 12.2083 48.0325 15.25C49.3458 18.2917 50.0017 21.5417 50 25C50 28.4583 49.3433 31.7083 48.03 34.75C46.7167 37.7917 44.9358 40.4375 42.6875 42.6875C40.4375 44.9375 37.7917 46.7192 34.75 48.0325C31.7083 49.3458 28.4583 50.0017 25 50ZM20 37.5H27.5C28.875 37.5 30.0525 37.01 31.0325 36.03C32.0125 35.05 32.5017 33.8733 32.5 32.5V28.75C32.5 27.6667 32.1458 26.7708 31.4375 26.0625C30.7292 25.3542 29.8333 25 28.75 25C29.8333 25 30.7292 24.6458 31.4375 23.9375C32.1458 23.2292 32.5 22.3333 32.5 21.25V17.5C32.5 16.125 32.01 14.9475 31.03 13.9675C30.05 12.9875 28.8733 12.4983 27.5 12.5H20C19.2917 12.5 18.6975 12.74 18.2175 13.22C17.7375 13.7 17.4983 14.2933 17.5 15C17.5 15.7083 17.74 16.3025 18.22 16.7825C18.7 17.2625 19.2933 17.5017 20 17.5H27.5V22.5H25C24.2917 22.5 23.6975 22.74 23.2175 23.22C22.7375 23.7 22.4983 24.2933 22.5 25C22.5 25.7083 22.74 26.3025 23.22 26.7825C23.7 27.2625 24.2933 27.5017 25 27.5H27.5V32.5H20C19.2917 32.5 18.6975 32.74 18.2175 33.22C17.7375 33.7 17.4983 34.2933 17.5 35C17.5 35.7083 17.74 36.3025 18.22 36.7825C18.7 37.2625 19.2933 37.5017 20 37.5Z" fill="#C3E600"/>
</svg>
