<svg width="50" height="50" viewBox="0 0 50 50" fill="none" xmlns="http://www.w3.org/2000/svg">
<path d="M25 50C21.5417 50 18.2917 49.3433 15.25 48.03C12.2083 46.7167 9.5625 44.9358 7.3125 42.6875C5.0625 40.4375 3.28167 37.7917 1.97 34.75C0.658334 31.7083 0.00166667 28.4583 0 25C0 21.5417 0.656667 18.2917 1.97 15.25C3.28333 12.2083 5.06417 9.5625 7.3125 7.3125C9.5625 5.0625 12.2083 3.28167 15.25 1.97C18.2917 0.658334 21.5417 0.00166667 25 0C28.4583 0 31.7083 0.656667 34.75 1.97C37.7917 3.28333 40.4375 5.06417 42.6875 7.3125C44.9375 9.5625 46.7192 12.2083 48.0325 15.25C49.3458 18.2917 50.0017 21.5417 50 25C50 28.4583 49.3433 31.7083 48.03 34.75C46.7167 37.7917 44.9358 40.4375 42.6875 42.6875C40.4375 44.9375 37.7917 46.7192 34.75 48.0325C31.7083 49.3458 28.4583 50.0017 25 50ZM23.75 17.5V35C23.75 35.7083 23.99 36.3025 24.47 36.7825C24.95 37.2625 25.5433 37.5017 26.25 37.5C26.9583 37.5 27.5525 37.26 28.0325 36.78C28.5125 36.3 28.7517 35.7067 28.75 35V15C28.75 14.2917 28.51 13.6975 28.03 13.2175C27.55 12.7375 26.9567 12.4983 26.25 12.5H21.25C20.5417 12.5 19.9475 12.74 19.4675 13.22C18.9875 13.7 18.7483 14.2933 18.75 15C18.75 15.7083 18.99 16.3025 19.47 16.7825C19.95 17.2625 20.5433 17.5017 21.25 17.5H23.75Z" fill="#C3E600"/>
</svg>
