<svg width="86" height="85" viewBox="0 0 86 85" fill="none" xmlns="http://www.w3.org/2000/svg">
<path d="M46.5413 43.1198L54.5101 51.0885C55.1594 51.7378 55.4841 52.55 55.4841 53.5252C55.4841 54.5003 55.1594 55.3409 54.5101 56.0469C53.8018 56.7552 52.96 57.1094 51.9849 57.1094C51.0097 57.1094 50.1692 56.7552 49.4632 56.0469L41.9372 48.5208C41.1108 47.6944 40.491 46.7795 40.0778 45.776C39.6646 44.7726 39.458 43.6805 39.458 42.5V31.875C39.458 30.8715 39.798 30.0298 40.478 29.3498C41.158 28.6698 41.9986 28.331 42.9997 28.3333C44.0031 28.3333 44.8449 28.6733 45.5249 29.3533C46.2049 30.0333 46.5437 30.8739 46.5413 31.875V43.1198ZM42.9997 14.1666C44.0031 14.1666 44.8449 14.5066 45.5249 15.1866C46.2049 15.8666 46.5437 16.7072 46.5413 17.7083C46.5413 18.7118 46.2013 19.5535 45.5213 20.2335C44.8413 20.9135 44.0008 21.2523 42.9997 21.25C41.9962 21.25 41.1545 20.91 40.4745 20.23C39.7945 19.55 39.4556 18.7094 39.458 17.7083C39.458 16.7048 39.798 15.8631 40.478 15.1831C41.158 14.5031 41.9986 14.1643 42.9997 14.1666ZM71.333 42.5C71.333 43.5035 70.993 44.3452 70.313 45.0252C69.633 45.7052 68.7925 46.044 67.7913 46.0416C66.7879 46.0416 65.9461 45.7016 65.2661 45.0216C64.5861 44.3416 64.2473 43.5011 64.2497 42.5C64.2497 41.4965 64.5897 40.6548 65.2697 39.9748C65.9497 39.2948 66.7902 38.956 67.7913 38.9583C68.7948 38.9583 69.6365 39.2983 70.3165 39.9783C70.9965 40.6583 71.3354 41.4989 71.333 42.5ZM42.9997 63.75C44.0031 63.75 44.8449 64.09 45.5249 64.77C46.2049 65.45 46.5437 66.2905 46.5413 67.2916C46.5413 68.2951 46.2013 69.1369 45.5213 69.8169C44.8413 70.4969 44.0008 70.8357 42.9997 70.8333C41.9962 70.8333 41.1545 70.4933 40.4745 69.8133C39.7945 69.1333 39.4556 68.2928 39.458 67.2916C39.458 66.2882 39.798 65.4464 40.478 64.7664C41.158 64.0864 41.9986 63.7476 42.9997 63.75ZM21.7497 42.5C21.7497 43.5035 21.4097 44.3452 20.7297 45.0252C20.0497 45.7052 19.2091 46.044 18.208 46.0416C17.2045 46.0416 16.3628 45.7016 15.6828 45.0216C15.0028 44.3416 14.664 43.5011 14.6663 42.5C14.6663 41.4965 15.0063 40.6548 15.6863 39.9748C16.3663 39.2948 17.2069 38.956 18.208 38.9583C19.2115 38.9583 20.0532 39.2983 20.7332 39.9783C21.4132 40.6583 21.752 41.4989 21.7497 42.5ZM42.9997 77.9166C38.1004 77.9166 33.4962 76.9864 29.1872 75.1258C24.8781 73.2653 21.1299 70.7424 17.9424 67.5573C14.7549 64.3698 12.232 60.6215 10.3738 56.3125C8.51565 52.0035 7.58537 47.3993 7.58301 42.5C7.58301 37.6007 8.51329 32.9965 10.3738 28.6875C12.2344 24.3785 14.7572 20.6302 17.9424 17.4427C21.1299 14.2552 24.8781 11.7323 29.1872 9.87415C33.4962 8.01595 38.1004 7.08567 42.9997 7.08331C47.899 7.08331 52.5031 8.01359 56.8122 9.87415C61.1212 11.7347 64.8695 14.2575 68.057 17.4427C71.2445 20.6302 73.7685 24.3785 75.6291 28.6875C77.4896 32.9965 78.4187 37.6007 78.4163 42.5C78.4163 47.3993 77.4861 52.0035 75.6255 56.3125C73.765 60.6215 71.2421 64.3698 68.057 67.5573C64.8695 70.7448 61.1212 73.2688 56.8122 75.1294C52.5031 76.9899 47.899 77.919 42.9997 77.9166ZM42.9997 70.8333C50.9094 70.8333 57.609 68.0885 63.0986 62.5989C68.5882 57.1094 71.333 50.4097 71.333 42.5C71.333 34.5903 68.5882 27.8906 63.0986 22.401C57.609 16.9114 50.9094 14.1666 42.9997 14.1666C35.09 14.1666 28.3903 16.9114 22.9007 22.401C17.4111 27.8906 14.6663 34.5903 14.6663 42.5C14.6663 50.4097 17.4111 57.1094 22.9007 62.5989C28.3903 68.0885 35.09 70.8333 42.9997 70.8333Z" fill="#C3E600"/>
</svg>
