<svg width="86" height="85" viewBox="0 0 86 85" fill="none" xmlns="http://www.w3.org/2000/svg">
<path d="M67.7917 10.625H28.8333C22.9754 10.625 18.2083 15.3921 18.2083 21.25V24.7917H14.6667C13.7274 24.7917 12.8265 25.1648 12.1623 25.829C11.4981 26.4932 11.125 27.394 11.125 28.3333C11.125 29.2726 11.4981 30.1735 12.1623 30.8377C12.8265 31.5019 13.7274 31.875 14.6667 31.875H18.2083V38.9583H14.6667C13.7274 38.9583 12.8265 39.3315 12.1623 39.9957C11.4981 40.6599 11.125 41.5607 11.125 42.5C11.125 43.4393 11.4981 44.3401 12.1623 45.0043C12.8265 45.6685 13.7274 46.0417 14.6667 46.0417H18.2083V53.125H14.6667C13.7274 53.125 12.8265 53.4981 12.1623 54.1623C11.4981 54.8265 11.125 55.7274 11.125 56.6667C11.125 57.606 11.4981 58.5068 12.1623 59.171C12.8265 59.8352 13.7274 60.2083 14.6667 60.2083H18.2083V63.75C18.2083 69.6079 22.9754 74.375 28.8333 74.375H67.7917C73.6496 74.375 78.4167 69.6079 78.4167 63.75V21.25C78.4167 15.3921 73.6496 10.625 67.7917 10.625ZM25.2917 21.25C25.2917 19.2985 26.8819 17.7083 28.8333 17.7083V24.7917H25.2917V21.25ZM25.2917 31.875H28.8333V38.9583H25.2917V31.875ZM25.2917 46.0417H28.8333V53.125H25.2917V46.0417ZM25.2917 63.75V60.2083H28.8333V67.2917C26.8819 67.2917 25.2917 65.7015 25.2917 63.75ZM71.3333 63.75C71.3333 65.7015 69.7431 67.2917 67.7917 67.2917H32.375V17.7083H67.7917C69.7431 17.7083 71.3333 19.2985 71.3333 21.25V63.75Z" fill="#C3E600"/>
<path d="M50.0833 44.2709C53.9954 44.2709 57.1667 41.0995 57.1667 37.1875C57.1667 33.2755 53.9954 30.1042 50.0833 30.1042C46.1713 30.1042 43 33.2755 43 37.1875C43 41.0995 46.1713 44.2709 50.0833 44.2709Z" fill="#C3E600"/>
<path d="M50.0837 47.3025C44.5516 47.3025 41.2295 49.8348 41.2295 52.3635C41.2295 53.6279 44.5516 54.8958 50.0837 54.8958C55.2757 54.8958 58.9378 53.6314 58.9378 52.3635C58.9378 49.8348 55.467 47.3025 50.0837 47.3025Z" fill="#C3E600"/>
</svg>
