<svg width="86" height="85" viewBox="0 0 86 85" fill="none" xmlns="http://www.w3.org/2000/svg">
<path d="M53.625 31.875H60.7083V38.9584H53.625V31.875ZM60.7083 17.7084H53.625V24.7917H60.7083V17.7084ZM39.4583 53.125H46.5417V46.0417H39.4583V53.125ZM46.5417 17.7084H39.4583V24.7917H46.5417V17.7084ZM39.4583 38.9584H46.5417V31.875H39.4583V38.9584ZM32.375 17.7084H25.2917V24.7917H32.375V17.7084ZM32.375 31.875H25.2917V38.9584H32.375V31.875ZM52.0312 74.375H46.5417V61.9792H39.4583V74.375H18.2083V10.625H67.7917V39.0646C70.3062 39.2771 72.7146 40.0563 74.875 41.1896V3.54169H11.125V81.4584H56.8479C55.3958 79.475 53.625 77.0667 52.0312 74.375ZM25.2917 67.2917H32.375V60.2084H25.2917V67.2917ZM32.375 46.0417H25.2917V53.125H32.375V46.0417ZM78.4167 58.4375C78.4167 67.6459 66.0208 81.4584 66.0208 81.4584C66.0208 81.4584 53.625 67.6459 53.625 58.4375C53.625 51.7084 59.2917 46.0417 66.0208 46.0417C72.75 46.0417 78.4167 51.7084 78.4167 58.4375ZM70.2708 58.7917C70.2708 56.6667 68.1458 54.5417 66.0208 54.5417C63.8958 54.5417 61.7708 56.3125 61.7708 58.7917C61.7708 60.9167 63.5417 63.0417 66.0208 63.0417C68.5 63.0417 70.625 60.9167 70.2708 58.7917Z" fill="#C3E600"/>
</svg>
