<svg width="202" height="202" viewBox="0 0 202 202" fill="none" xmlns="http://www.w3.org/2000/svg">
<g opacity="0.2">
<path d="M33.8 168.2V197H168.2V168.2" stroke="#C3E600" stroke-width="10" stroke-linecap="round" stroke-linejoin="round"/>
<path d="M168.2 81.8V53L129.8 5H33.8V81.8" stroke="#C3E600" stroke-width="10" stroke-linecap="round" stroke-linejoin="round"/>
<path d="M120.2 5V53H168.2" stroke="#C3E600" stroke-width="10" stroke-linecap="round" stroke-linejoin="round"/>
<path d="M62.6 43.3999H81.8" stroke="#C3E600" stroke-width="10" stroke-linecap="round"/>
<path d="M187.4 81.8H14.6C9.29807 81.8 5 86.0981 5 91.4V158.6C5 163.902 9.29807 168.2 14.6 168.2H187.4C192.702 168.2 197 163.902 197 158.6V91.4C197 86.0981 192.702 81.8 187.4 81.8Z" stroke="#C3E600" stroke-width="10" stroke-linejoin="round"/>
<path d="M33.8 105.8V144.2" stroke="#C3E600" stroke-width="10" stroke-linecap="round"/>
<path d="M33.8 105.8H43.4C54.0037 105.8 62.6 114.396 62.6 125C62.6 135.604 54.0037 144.2 43.4 144.2H33.8" stroke="#C3E600" stroke-width="10" stroke-linecap="round" stroke-linejoin="round"/>
<path d="M101 144.2C108.953 144.2 115.4 135.604 115.4 125C115.4 114.396 108.953 105.8 101 105.8C93.0471 105.8 86.6 114.396 86.6 125C86.6 135.604 93.0471 144.2 101 144.2Z" stroke="#C3E600" stroke-width="10" stroke-linecap="round" stroke-linejoin="round"/>
<path d="M168.2 105.8H158.6C147.996 105.8 139.4 114.396 139.4 125C139.4 135.604 147.996 144.2 158.6 144.2H168.2" stroke="#C3E600" stroke-width="10" stroke-linecap="round" stroke-linejoin="round"/>
</g>
</svg>
