<svg width="192" height="192" viewBox="0 0 192 192" fill="none" xmlns="http://www.w3.org/2000/svg">
<g opacity="0.2">
<path d="M145.626 61.7706L149.671 57.7167C152.892 54.4947 157.26 52.6842 161.816 52.6833C166.372 52.6825 170.742 54.4915 173.964 57.7124C177.186 60.9332 178.996 65.3021 178.997 69.8579C178.998 74.4137 177.189 78.7832 173.968 82.0052L169.923 86.0591M145.626 61.7706C145.626 61.7706 146.132 70.3677 153.725 77.96C161.317 85.5524 169.923 86.0591 169.923 86.0591M145.626 61.7706L108.407 98.9897C105.873 101.506 104.615 102.773 103.531 104.162C102.256 105.804 101.164 107.569 100.264 109.456C99.5036 111.047 98.9445 112.733 97.8174 116.114L94.2091 126.948L93.0384 130.451M169.923 86.0591L132.704 123.278C130.17 125.812 128.912 127.07 127.523 128.153C125.88 129.429 124.115 130.521 122.228 131.421C120.638 132.181 118.952 132.74 115.571 133.867L104.737 137.476L101.234 138.646M93.0384 130.451L91.8764 133.963C91.6057 134.779 91.5672 135.653 91.765 136.489C91.9629 137.325 92.3894 138.089 92.9968 138.697C93.6042 139.304 94.3685 139.73 95.2045 139.928C96.0404 140.126 96.9148 140.088 97.7301 139.817L101.234 138.646M93.0384 130.451L101.234 138.646" stroke="#C3E600" stroke-width="10"/>
<path d="M56.6843 105.105H78.5264M56.6843 70.158H113.474M56.6843 140.053H69.7896M160.024 19.2396C149.793 9 133.315 9 100.369 9H82.8949C49.9482 9 33.4705 9 23.2396 19.2396C13 29.4705 13 45.9482 13 78.8949V113.842C13 146.789 13 163.267 23.2396 173.498C33.4705 183.737 49.9482 183.737 82.8949 183.737H100.369C133.315 183.737 149.793 183.737 160.024 173.498C168.271 165.259 169.87 152.983 170.185 131.316" stroke="#C3E600" stroke-width="10" stroke-linecap="round"/>
</g>
</svg>
