<svg width="64" height="64" viewBox="0 0 64 64" fill="none" xmlns="http://www.w3.org/2000/svg">
<path d="M39.9999 29.3334V29.36M13.7946 22.3414C12.625 21.4424 11.7267 20.2376 11.199 18.8601C10.6714 17.4826 10.5348 15.986 10.8045 14.5357C11.0742 13.0854 11.7397 11.738 12.7273 10.6422C13.7149 9.5465 14.9863 8.74518 16.4008 8.32682C17.8154 7.90847 19.3181 7.88937 20.7429 8.27165C22.1676 8.65393 23.4589 9.42269 24.4741 10.493C25.4892 11.5633 26.1887 12.8934 26.4951 14.3363C26.8016 15.7793 26.7031 17.2789 26.2106 18.6694" stroke="#C3E600" stroke-width="5" stroke-linecap="round" stroke-linejoin="round"/>
<path d="M42.6667 10.6667V20.808C45.967 22.7177 48.4796 25.7399 49.7547 29.3334H53.3307C54.0379 29.3334 54.7162 29.6143 55.2163 30.1144C55.7164 30.6145 55.9973 31.2928 55.9973 32V37.3334C55.9973 38.0406 55.7164 38.7189 55.2163 39.219C54.7162 39.7191 54.0379 40 53.3307 40H49.752C48.856 42.5334 47.3333 44.8 45.3307 46.5947V52C45.3307 53.0609 44.9092 54.0783 44.1591 54.8284C43.4089 55.5786 42.3915 56 41.3307 56C40.2698 56 39.2524 55.5786 38.5022 54.8284C37.7521 54.0783 37.3307 53.0609 37.3307 52V50.4454C36.4495 50.593 35.5575 50.667 34.664 50.6667H23.9973C23.1038 50.667 22.2119 50.593 21.3307 50.4454V52C21.3307 53.0609 20.9092 54.0783 20.1591 54.8284C19.4089 55.5786 18.3915 56 17.3307 56C16.2698 56 15.2524 55.5786 14.5022 54.8284C13.7521 54.0783 13.3307 53.0609 13.3307 52V46.5947C10.9146 44.4346 9.2114 41.5917 8.44662 38.4423C7.68184 35.2929 7.89149 31.9855 9.04784 28.9579C10.2042 25.9303 12.2527 23.3253 14.9222 21.4876C17.5917 19.6499 20.7564 18.6662 23.9973 18.6667H30.664L42.664 10.6667H42.6667Z" stroke="#C3E600" stroke-width="5" stroke-linecap="round" stroke-linejoin="round"/>
</svg>
