<svg width="64" height="64" viewBox="0 0 64 64" fill="none" xmlns="http://www.w3.org/2000/svg">
<path d="M50.6667 5.33331H24C21.0587 5.33331 18.6667 7.72531 18.6667 10.6666V25.5626L6.11469 38.1146C5.74186 38.4876 5.48798 38.9627 5.38513 39.4799C5.28229 39.9971 5.33509 40.5332 5.53688 41.0204C5.73867 41.5076 6.08037 41.924 6.5188 42.217C6.95723 42.5101 7.47269 42.6665 8.00002 42.6666V56C8.00002 56.7072 8.28097 57.3855 8.78107 57.8856C9.28117 58.3857 9.95944 58.6666 10.6667 58.6666H53.3334C54.0406 58.6666 54.7189 58.3857 55.219 57.8856C55.7191 57.3855 56 56.7072 56 56V10.6666C56 7.72531 53.608 5.33331 50.6667 5.33331ZM29.3334 53.3333H13.3334V38.4373L21.3334 30.4373L29.3334 38.4373V53.3333ZM50.6667 53.3333H34.6667V42.6666C35.1946 42.6678 35.7109 42.5121 36.1502 42.2193C36.5895 41.9265 36.9318 41.5098 37.1338 41.022C37.3358 40.5343 37.3884 39.9976 37.2848 39.4799C37.1812 38.9623 36.9262 38.4871 36.552 38.1146L24 25.5626V10.6666H50.6667V53.3333Z" fill="#C3E600"/>
<path d="M29.3334 16H34.6667V21.3333H29.3334V16ZM40 16H45.3334V21.3333H40V16ZM40 26.7493H45.3334V32H40V26.7493ZM40 37.3333H45.3334V42.6667H40V37.3333ZM18.6667 40H24V45.3333H18.6667V40Z" fill="#C3E600"/>
</svg>
