<svg width="14" height="9" viewBox="0 0 14 9" fill="none" xmlns="http://www.w3.org/2000/svg">
<path d="M13.625 0.625C13.8542 0.854167 13.9688 1.14583 13.9688 1.5C13.9688 1.85417 13.8542 2.14583 13.625 2.375L7.875 8.125C7.75 8.25 7.61458 8.33875 7.46875 8.39125C7.32292 8.44292 7.16667 8.46875 7 8.46875C6.83333 8.46875 6.67167 8.4375 6.515 8.375C6.35917 8.3125 6.22917 8.22917 6.125 8.125L0.375001 2.375C0.145835 2.14583 0.0312496 1.85417 0.0312497 1.5C0.0312497 1.14583 0.145836 0.854166 0.375002 0.624999C0.604169 0.395833 0.895834 0.281249 1.25 0.281249C1.60417 0.281249 1.89583 0.395833 2.125 0.624999L7 5.5L11.875 0.625C12.1042 0.395834 12.3958 0.28125 12.75 0.28125C13.1042 0.28125 13.3958 0.395834 13.625 0.625Z" fill="#232800"/>
</svg>
