<svg width="60" height="60" viewBox="0 0 60 60" fill="none" xmlns="http://www.w3.org/2000/svg">
<path d="M25 34L39.75 19.25C40.2083 18.7917 40.7917 18.5625 41.5 18.5625C42.2083 18.5625 42.7917 18.7917 43.25 19.25C43.7083 19.7083 43.9375 20.2917 43.9375 21C43.9375 21.7083 43.7083 22.2917 43.25 22.75L26.75 39.25C26.25 39.75 25.6667 40 25 40C24.3333 40 23.75 39.75 23.25 39.25L16.75 32.75C16.2917 32.2917 16.0625 31.7083 16.0625 31C16.0625 30.2917 16.2917 29.7083 16.75 29.25C17.2083 28.7917 17.7917 28.5625 18.5 28.5625C19.2083 28.5625 19.7917 28.7917 20.25 29.25L25 34Z" fill="#C3E600"/>
</svg>
