<svg width="36" height="36" viewBox="0 0 36 36" fill="none" xmlns="http://www.w3.org/2000/svg">
<path d="M9.57692 14.44V23.6754M18.5 14.44V23.6754M14.0385 16.4254V21.69M27.4231 14.44V23.6754M22.9615 16.4254V21.69M4 11.8077V6.23077C4 5.63913 4.23503 5.07173 4.65338 4.65338C5.07173 4.23503 5.63913 4 6.23077 4H11.8077M33 11.8077V6.23077C33 5.63913 32.765 5.07173 32.3466 4.65338C31.9283 4.23503 31.3609 4 30.7692 4H25.1923M4 25.1923V30.7692C4 31.3609 4.23503 31.9283 4.65338 32.3466C5.07173 32.765 5.63913 33 6.23077 33H11.8077M33 25.1923V30.7692C33 31.3609 32.765 31.9283 32.3466 32.3466C31.9283 32.765 31.3609 33 30.7692 33H25.1923" stroke="#C3E600" stroke-width="3" stroke-linecap="round" stroke-linejoin="round"/>
</svg>
