<svg width="36" height="36" viewBox="0 0 36 36" fill="none" xmlns="http://www.w3.org/2000/svg">
<path d="M18 18C18.825 18 19.5315 17.706 20.1195 17.118C20.7075 16.53 21.001 15.824 21 15C21 14.175 20.706 13.4685 20.118 12.8805C19.53 12.2925 18.824 11.999 18 12C17.175 12 16.4685 12.294 15.8805 12.882C15.2925 13.47 14.999 14.176 15 15C15 15.825 15.294 16.5315 15.882 17.1195C16.47 17.7075 17.176 18.001 18 18ZM18 29.025C21.05 26.225 23.3125 23.681 24.7875 21.393C26.2625 19.105 27 17.074 27 15.3C27 12.575 26.131 10.344 24.393 8.607C22.655 6.87 20.524 6.001 18 6C15.475 6 13.3435 6.869 11.6055 8.607C9.8675 10.345 8.999 12.576 9 15.3C9 17.075 9.7375 19.1065 11.2125 21.3945C12.6875 23.6825 14.95 26.226 18 29.025ZM18 33C13.975 29.575 10.969 26.394 8.982 23.457C6.995 20.52 6.001 17.801 6 15.3C6 11.55 7.2065 8.5625 9.6195 6.3375C12.0325 4.1125 14.826 3 18 3C21.175 3 23.969 4.1125 26.382 6.3375C28.795 8.5625 30.001 11.55 30 15.3C30 17.8 29.006 20.519 27.018 23.457C25.03 26.395 22.024 29.576 18 33Z" fill="#C3E600"/>
</svg>
