<svg width="36" height="36" viewBox="0 0 36 36" fill="none" xmlns="http://www.w3.org/2000/svg">
<path d="M31.05 12.0662L18.7643 6.00248C18.5266 5.88521 18.2651 5.82422 18 5.82422C17.7349 5.82422 17.4734 5.88521 17.2357 6.00248L4.95 12.0662C4.47901 12.297 4.08193 12.6549 3.80361 13.0994C3.5253 13.544 3.37684 14.0575 3.375 14.582V27.5624C3.375 29.1156 4.65047 30.3749 6.22406 30.3749H29.7787C31.3523 30.3749 32.6278 29.1156 32.6278 27.5624V14.582C32.6257 14.0572 32.4768 13.5435 32.198 13.0989C31.9192 12.6543 31.5215 12.2966 31.05 12.0662Z" stroke="#C3E600" stroke-width="3" stroke-linecap="round" stroke-linejoin="round"/>
<path d="M27.9373 25.875L18.8487 18.8058C18.5524 18.5754 18.1879 18.4503 17.8126 18.4503C17.4373 18.4503 17.0728 18.5754 16.7766 18.8058L7.68726 25.875M21.7498 20.7422L31.3123 13.5M4.31226 13.5L14.0857 20.8828" stroke="#C3E600" stroke-width="3" stroke-linecap="round" stroke-linejoin="round"/>
</svg>
