<svg width="36" height="36" viewBox="0 0 36 36" fill="none" xmlns="http://www.w3.org/2000/svg">
<path d="M24.834 19.359L24.1515 20.0385C24.1515 20.0385 22.527 21.6525 18.0945 17.2455C13.662 12.8385 15.2865 11.2245 15.2865 11.2245L15.7155 10.7955C16.776 9.74247 16.8765 8.05047 15.951 6.81447L14.061 4.28997C12.915 2.75997 10.7025 2.55747 9.39 3.86247L7.035 6.20247C6.3855 6.85047 5.9505 7.68747 6.003 8.61747C6.138 10.998 7.215 16.1175 13.221 22.0905C19.5915 28.4235 25.569 28.6755 28.0125 28.4475C28.7865 28.3755 29.4585 27.9825 30 27.4425L32.13 25.3245C33.57 23.895 33.165 21.4425 31.323 20.442L28.458 18.8835C27.249 18.2265 25.779 18.42 24.834 19.359Z" fill="#C3E600"/>
</svg>
