<svg width="64" height="64" viewBox="0 0 64 64" fill="none" xmlns="http://www.w3.org/2000/svg">
<path d="M55.3688 33.3562C55.5938 34.1062 55.7062 34.8812 55.7062 35.6687C55.7062 37.4375 55.125 39.1375 54.075 40.525C54.3 41.275 54.4125 42.05 54.4125 42.8375C54.4125 44.6062 53.8312 46.3062 52.7812 47.6937C53.0062 48.4437 53.1187 49.2187 53.1187 50.0062C53.1187 53.2312 51.2 56.1375 48.225 57.4062C47.7021 57.6317 47.1382 57.7466 46.5687 57.7437L9 57.7437C7.89375 57.7437 7 56.85 7 55.7437L7 32.9937C7 31.8875 7.89375 30.9937 9 30.9937L17.0813 30.9937L22.4438 11.5687C23.3063 8.43747 26.1813 6.24997 29.4313 6.24997C31.2875 6.24997 33.0188 6.98747 34.3 8.33747C35.5813 9.68122 36.2375 11.4437 36.1438 13.3L35.7688 20.9812L50.7625 20.9812C51.5188 20.9812 52.2563 21.1812 52.9063 21.5625C55.4313 23.0312 57 25.6937 57 28.5C57 30.2687 56.4188 31.9687 55.3688 33.3562ZM11.5 35.5L11.5 53.25L16.5625 53.25L16.5625 35.5L11.5 35.5ZM50.7 25.475L31.05 25.475L31.65 13.075C31.6875 12.3312 31.3563 11.6312 30.7375 11.1687C30.3563 10.8875 29.8875 10.7437 29.4188 10.75C28.8199 10.7558 28.2391 10.9557 27.7635 11.3197C27.2879 11.6837 26.9433 12.1922 26.7813 12.7687L20.5625 35.3L20.5625 53.25L46.525 53.25C47.1497 52.97 47.6803 52.5155 48.0528 51.9412C48.4254 51.3668 48.6241 50.6971 48.625 50.0125C48.625 49.4062 48.4812 48.8312 48.1937 48.3062L47.325 46.7187L48.6937 45.5312C49.079 45.1976 49.3878 44.7848 49.5992 44.321C49.8106 43.8573 49.9196 43.3534 49.9187 42.8437C49.9187 42.2375 49.775 41.6625 49.4875 41.1375L48.6188 39.55L49.9875 38.3625C50.3728 38.0288 50.6816 37.616 50.893 37.1523C51.1044 36.6885 51.2134 36.1846 51.2125 35.675C51.2125 35.0687 51.0687 34.4937 50.7812 33.9687L49.9062 32.375L51.275 31.1875C51.6603 30.8538 51.9691 30.441 52.1805 29.9773C52.3919 29.5135 52.5009 29.0096 52.5 28.5C52.5 27.3062 51.8125 26.1562 50.7 25.475Z" fill="#C3E600"/>
</svg>
