<svg width="192" height="192" viewBox="0 0 192 192" fill="none" xmlns="http://www.w3.org/2000/svg">
<g opacity="0.2">
<path d="M71.7258 30.8572L77.6229 15.6343C78.6174 13.0569 80.3672 10.84 82.643 9.2738C84.9188 7.70765 87.6146 6.86534 90.3772 6.85718H101.623C104.386 6.86534 107.081 7.70765 109.357 9.2738C111.633 10.84 113.383 13.0569 114.377 15.6343L120.274 30.8572L140.297 42.3772L156.48 39.9086C159.175 39.5429 161.917 39.9864 164.359 41.183C166.801 42.3795 168.832 44.275 170.194 46.6286L175.68 56.2286C177.086 58.6197 177.733 61.3808 177.538 64.1475C177.342 66.9143 176.311 69.5566 174.583 71.7258L164.571 84.48V107.52L174.857 120.274C176.586 122.444 177.616 125.086 177.812 127.853C178.008 130.619 177.36 133.38 175.954 135.771L170.469 145.371C169.106 147.725 167.075 149.621 164.633 150.817C162.191 152.014 159.449 152.457 156.754 152.091L140.571 149.623L120.549 161.143L114.651 176.366C113.657 178.943 111.907 181.16 109.631 182.726C107.356 184.292 104.66 185.135 101.897 185.143H90.3772C87.6146 185.135 84.9188 184.292 82.643 182.726C80.3672 181.16 78.6174 178.943 77.6229 176.366L71.7258 161.143L51.7029 149.623L35.5201 152.091C32.8254 152.457 30.0829 152.014 27.641 150.817C25.199 149.621 23.1679 147.725 21.8058 145.371L16.3201 135.771C14.9144 133.38 14.2667 130.619 14.4626 127.853C14.6585 125.086 15.6887 122.444 17.4172 120.274L27.4286 107.52V84.48L17.1429 71.7258C15.4144 69.5566 14.3842 66.9143 14.1883 64.1475C13.9924 61.3808 14.6401 58.6197 16.0458 56.2286L21.5315 46.6286C22.8936 44.275 24.9247 42.3795 27.3667 41.183C29.8086 39.9864 32.5511 39.5429 35.2458 39.9086L51.4286 42.3772L71.7258 30.8572ZM68.5715 96C68.5715 101.425 70.1801 106.728 73.194 111.239C76.2079 115.749 80.4917 119.265 85.5036 121.341C90.5155 123.417 96.0305 123.96 101.351 122.902C106.672 121.843 111.559 119.231 115.395 115.395C119.231 111.559 121.843 106.672 122.902 101.351C123.96 96.0305 123.417 90.5155 121.341 85.5036C119.265 80.4917 115.749 76.2079 111.239 73.194C106.728 70.1801 101.425 68.5715 96.0001 68.5715C88.7255 68.5715 81.749 71.4613 76.6051 76.6051C71.4613 81.749 68.5715 88.7255 68.5715 96Z" stroke="#C3E600" stroke-width="10" stroke-linecap="round" stroke-linejoin="round"/>
</g>
</svg>
