<svg width="137" height="137" viewBox="0 0 137 137" fill="none" xmlns="http://www.w3.org/2000/svg">
<path d="M68.5 11.4165C37.0243 11.4165 11.4167 37.0241 11.4167 68.4998C11.4167 99.9756 37.0243 125.583 68.5 125.583C99.9758 125.583 125.583 99.9756 125.583 68.4998C125.583 37.0241 99.9758 11.4165 68.5 11.4165ZM68.5 114.166C43.3206 114.166 22.8334 93.6793 22.8334 68.4998C22.8334 43.3204 43.3206 22.8332 68.5 22.8332C93.6795 22.8332 114.167 43.3204 114.167 68.4998C114.167 93.6793 93.6795 114.166 68.5 114.166Z" fill="#C3E600"/>
<path d="M48.5208 68.5C53.2498 68.5 57.0833 64.6664 57.0833 59.9375C57.0833 55.2086 53.2498 51.375 48.5208 51.375C43.7919 51.375 39.9583 55.2086 39.9583 59.9375C39.9583 64.6664 43.7919 68.5 48.5208 68.5Z" fill="#C3E600"/>
<path d="M88.4392 68.4201C93.1461 68.4201 96.9618 64.6044 96.9618 59.8975C96.9618 55.1907 93.1461 51.375 88.4392 51.375C83.7324 51.375 79.9167 55.1907 79.9167 59.8975C79.9167 64.6044 83.7324 68.4201 88.4392 68.4201Z" fill="#C3E600"/>
<path d="M68.5 102.75C91.3333 102.75 97.0416 79.9165 97.0416 79.9165H39.9583C39.9583 79.9165 45.6666 102.75 68.5 102.75Z" fill="#C3E600"/>
</svg>
