<svg width="137" height="137" viewBox="0 0 137 137" fill="none" xmlns="http://www.w3.org/2000/svg">
<path d="M12.8438 55.656H25.6875V89.906H17.125C15.9895 89.906 14.9006 90.3571 14.0977 91.16C13.2948 91.9629 12.8438 93.0518 12.8438 94.1873C12.8438 95.3227 13.2948 96.4117 14.0977 97.2146C14.9006 98.0175 15.9895 98.4685 17.125 98.4685H119.875C121.01 98.4685 122.099 98.0175 122.902 97.2146C123.705 96.4117 124.156 95.3227 124.156 94.1873C124.156 93.0518 123.705 91.9629 122.902 91.16C122.099 90.3571 121.01 89.906 119.875 89.906H111.312V55.656H124.156C125.088 55.6551 125.994 55.3504 126.736 54.7881C127.479 54.2258 128.018 53.4366 128.271 52.5403C128.525 51.6439 128.479 50.6894 128.141 49.8213C127.803 48.9533 127.192 48.2192 126.399 47.7304L70.7423 13.4804C70.0679 13.0657 69.2917 12.8462 68.5 12.8462C67.7083 12.8462 66.9321 13.0657 66.2577 13.4804L10.6014 47.7304C9.80849 48.2192 9.1966 48.9533 8.8586 49.8213C8.5206 50.6894 8.47493 51.6439 8.72852 52.5403C8.98211 53.4366 9.52111 54.2258 10.2638 54.7881C11.0064 55.3504 11.9122 55.6551 12.8438 55.656ZM34.25 55.656H51.375V89.906H34.25V55.656ZM77.0625 55.656V89.906H59.9375V55.656H77.0625ZM102.75 89.906H85.625V55.656H102.75V89.906ZM68.5 22.1499L109.033 47.0935H27.9673L68.5 22.1499ZM132.719 111.312C132.719 112.448 132.268 113.537 131.465 114.34C130.662 115.142 129.573 115.594 128.438 115.594H8.5625C7.42704 115.594 6.33809 115.142 5.5352 114.34C4.73231 113.537 4.28125 112.448 4.28125 111.312C4.28125 110.177 4.73231 109.088 5.5352 108.285C6.33809 107.482 7.42704 107.031 8.5625 107.031H128.438C129.573 107.031 130.662 107.482 131.465 108.285C132.268 109.088 132.719 110.177 132.719 111.312Z" fill="#C3E600"/>
</svg>
